<mxfile host="65bd71144e">
    <diagram id="egW8s85FjVKY9y894_Ii" name="Page-1">
        <mxGraphModel dx="840" dy="545" grid="1" gridSize="10" guides="1" tooltips="1" connect="1" arrows="1" fold="1" page="1" pageScale="1" pageWidth="850" pageHeight="1100" math="0" shadow="0">
            <root>
                <mxCell id="0"/>
                <mxCell id="1" parent="0"/>
                <mxCell id="3" value="&lt;font style=&quot;font-size: 250px&quot;&gt;JJ&lt;/font&gt;" style="whiteSpace=wrap;html=1;aspect=fixed;strokeWidth=4;rounded=1;strokeColor=none;" parent="1" vertex="1">
                    <mxGeometry x="290" y="90" width="400" height="400" as="geometry"/>
                </mxCell>
            </root>
        </mxGraphModel>
    </diagram>
</mxfile>